<?xml version="1.0" encoding="UTF-8"?>
<svg version="1.1" xmlns="http://www.w3.org/2000/svg" width="395" height="395">
<path d="M0 0 C3.25696479 0.41755959 4.63443291 0.63443291 7 3 C6.01 3 5.02 3 4 3 C4 3.66 4 4.32 4 5 C4.94875 4.79375 5.8975 4.5875 6.875 4.375 C8.421875 4.189375 8.421875 4.189375 10 4 C10.99 4.99 10.99 4.99 12 6 C11.34 6.33 10.68 6.66 10 7 C12.39509338 9.89932357 14.31245243 10.50168276 18 11 C18 11.66 18 12.32 18 13 C18.66 13 19.32 13 20 13 C20.495 15.97 20.495 15.97 21 19 C21.66 18.34 22.32 17.68 23 17 C23.99 19.475 23.99 19.475 25 22 C24.34 22 23.68 22 23 22 C23.474375 22.78375 23.94875 23.5675 24.4375 24.375 C25.33898023 25.88948678 26.21179485 27.4235897 27 29 C27.99 28.505 27.99 28.505 29 28 C28.979375 29.11375 28.95875 30.2275 28.9375 31.375 C28.73619282 34.83215921 28.73619282 34.83215921 30 37 C30.99 37 31.98 37 33 37 C33.99 41.95 33.99 41.95 35 47 C35.33 47 35.66 47 36 47 C36.99 55.91 36.99 55.91 38 65 C41.465 64.505 41.465 64.505 45 64 C45.33 62.68 45.66 61.36 46 60 C46.94875 60.2475 47.8975 60.495 48.875 60.75 C53.26679061 61.38368522 56.27918317 59.87043226 60.25 58.12109375 C67.14812615 55.30893153 74.61444858 53.83926721 82 53 C79.36 52.67 76.72 52.34 74 52 C74 51.67 74 51.34 74 51 C76.05078125 50.77213542 78.1015625 50.54427083 80.15234375 50.31640625 C82.01140229 50.18113386 82.01140229 50.18113386 83 49 C88.89439625 47.95336646 94.87022633 47.85114797 100.83984375 47.8671875 C101.64684219 47.86623077 102.45384064 47.86527405 103.28529358 47.86428833 C104.9785266 47.86361306 106.67176231 47.86542132 108.36499023 47.86962891 C110.92763201 47.8749794 113.49009799 47.86966513 116.05273438 47.86328125 C124.08668354 47.8595711 132.03006289 47.85799085 140 49 C140.33 49.33 140.66 49.66 141 50 C142.34747084 50.23075082 143.70377565 50.41153063 145.0625 50.5625 C146.361875 50.706875 147.66125 50.85125 149 51 C149 51.33 149 51.66 149 52 C146.36 52.33 143.72 52.66 141 53 C141.85722656 53.10957031 142.71445313 53.21914063 143.59765625 53.33203125 C149.95039227 54.21296308 155.23664141 55.22915453 161 58 C166.78870559 60.38419709 170.84471212 61.44059929 177 60 C177.06832031 60.61746094 177.13664062 61.23492187 177.20703125 61.87109375 C177.80780584 64.18636052 177.80780584 64.18636052 180.07421875 65.16015625 C180.93660156 65.45792969 181.79898437 65.75570312 182.6875 66.0625 C186.6289015 67.49316654 190.29283524 69.04886065 194 71 C194 71.66 194 72.32 194 73 C195.65 73.33 197.3 73.66 199 74 C199 74.66 199 75.32 199 76 C199.99 76 200.98 76 202 76 C202 76.66 202 77.32 202 78 C206.43093198 79.81301758 206.43093198 79.81301758 211 79 C211 80.65 211 82.3 211 84 C212.32 84.33 213.64 84.66 215 85 C215 85.66 215 86.32 215 87 C215.598125 87.28875 216.19625 87.5775 216.8125 87.875 C219 89 219 89 222 91 C222.99 91 223.98 91 225 91 C225 91.99 225 92.98 225 94 C226.6396721 95.36639342 228.31110128 96.6949419 230 98 C231.35386936 99.65002828 232.68678142 101.3174387 234 103 C235.6454378 104.68762851 237.31288577 106.3540349 239 108 C240.66666667 109.66666667 242.33333333 111.33333333 244 113 C244.66 112.67 245.32 112.34 246 112 C246.33 113.32 246.66 114.64 247 116 C247.66 116 248.32 116 249 116 C251.71836779 118.61381519 251.99552747 119.91054943 252.1875 123.75 C252.125625 124.8225 252.06375 125.895 252 127 C252.66 127 253.32 127 254 127 C254.33 126.34 254.66 125.68 255 125 C254.938125 125.7425 254.87625 126.485 254.8125 127.25 C255.03094296 130.45383006 255.90250005 131.64031256 258 134 C258.66 133.34 259.32 132.68 260 132 C260 132.99 260 133.98 260 135 C260.66 135 261.32 135 262 135 C262.33 137.64 262.66 140.28 263 143 C263.66 142.34 264.32 141.68 265 141 C265.22786458 143.05078125 265.45572917 145.1015625 265.68359375 147.15234375 C265.81886614 149.01140229 265.81886614 149.01140229 267 150 C267.33 149.01 267.66 148.02 268 147 C269.80411967 149.75924185 270.0127245 150.88972103 269.625 154.25 C269.315625 155.61125 269.315625 155.61125 269 157 C270.32 157.33 271.64 157.66 273 158 C273.16947579 159.41633336 273.33545507 160.83308533 273.5 162.25 C273.5928125 163.03890625 273.685625 163.8278125 273.78125 164.640625 C274 167 274 167 274 171 C274.33 169.35 274.66 167.7 275 166 C275.33 166 275.66 166 276 166 C281.52275096 183.63598472 281.52275096 183.63598472 281 192 C280.67 192.33 280.34 192.66 280 193 C279.90141397 194.4555937 279.87027857 195.91607919 279.875 197.375 C279.87113281 198.56222656 279.87113281 198.56222656 279.8671875 199.7734375 C279.91382334 202.17343496 279.91382334 202.17343496 281 205 C281.09548531 207.24840887 281.13073536 209.49956547 281.1328125 211.75 C281.13424759 212.73178223 281.13424759 212.73178223 281.13571167 213.73339844 C281.13639122 215.11523535 281.13455261 216.49707549 281.13037109 217.87890625 C281.1250196 219.99226054 281.13032361 222.10540231 281.13671875 224.21875 C281.13605793 225.56250047 281.13477668 226.9062508 281.1328125 228.25 C281.13168457 229.47203125 281.13055664 230.6940625 281.12939453 231.953125 C281 235 281 235 280 238 C279.90817058 239.53949329 279.86997648 241.08277855 279.875 242.625 C279.87113281 243.81996094 279.87113281 243.81996094 279.8671875 245.0390625 C279.78429926 247.00353536 279.78429926 247.00353536 281 248 C281.04092937 250.33297433 281.04241723 252.66705225 281 255 C279.02 255.99 279.02 255.99 277 257 C277.20625 258.134375 277.4125 259.26875 277.625 260.4375 C278.25310502 265.24723573 277.29531167 269.37541619 276 274 C275.67 274 275.34 274 275 274 C274.67 273.01 274.34 272.02 274 271 C274.0309375 272.8871875 274.0309375 272.8871875 274.0625 274.8125 C274.10886083 277.64051087 273.91692961 279.24921116 273 282 C270.9375 282.6875 270.9375 282.6875 269 283 C269.3403125 284.36125 269.3403125 284.36125 269.6875 285.75 C270 289 270 289 268.5625 291.375 C267.7890625 292.179375 267.7890625 292.179375 267 293 C266.67 292.01 266.34 291.02 266 290 C265.566875 291.051875 265.13375 292.10375 264.6875 293.1875 C263.36129459 296.29460982 261.8167024 299.14518195 260 302 C260.66 302 261.32 302 262 302 C260.375 307.75 260.375 307.75 257 310 C256.34 310.33 255.68 310.66 255 311 C254.34227572 314.02934491 254.34227572 314.02934491 254 317 C253.34 317 252.68 317 252 317 C250.8509288 318.9254644 250.8509288 318.9254644 251 321 C250.34 321.99 249.68 322.98 249 324 C248.34 324 247.68 324 247 324 C246.73058594 324.58265625 246.46117187 325.1653125 246.18359375 325.765625 C244.99412977 328.01108176 243.69416509 329.80694844 242.0625 331.75 C241.55847656 332.36359375 241.05445313 332.9771875 240.53515625 333.609375 C239 335 239 335 236 335 C234.04636321 336.78817275 232.24074606 338.5711665 230.4375 340.5 C228.66113119 342.38522061 226.86681475 344.2003789 225 346 C224.34 346 223.68 346 223 346 C223 346.66 223 347.32 223 348 C221.68799596 349.35432675 220.35368596 350.68733482 219 352 C218.67 352.66 218.34 353.32 218 354 C217.01 354 216.02 354 215 354 C213.12938789 355.13857468 213.12938789 355.13857468 211.25 356.6875 C210.55003906 357.23019531 209.85007812 357.77289063 209.12890625 358.33203125 C208.42636719 358.88246094 207.72382813 359.43289063 207 360 C200.4754522 365 200.4754522 365 197 365 C197 365.66 197 366.32 197 367 C194.03 368.485 194.03 368.485 191 370 C191 370.99 191 371.98 191 373 C190.2575 372.814375 189.515 372.62875 188.75 372.4375 C186.05009037 372.00796892 184.55368923 372.14877026 182 373 C182 373.66 182 374.32 182 375 C179.69 375.66 177.38 376.32 175 377 C176.32 377.66 177.64 378.32 179 379 C175.78244997 380.65752578 174.20746414 381.0301766 170.5625 380.5 C165.87952764 379.84274072 162.98579318 381.14109292 158.7421875 382.9765625 C155.60803371 384.14628941 152.52225837 384.86805406 149.25 385.5625 C148.10015625 385.81128906 146.9503125 386.06007813 145.765625 386.31640625 C138.2641391 387.67819052 130.89357826 388.1579258 123.27734375 388.16796875 C122.37359512 388.17129715 121.4698465 388.17462555 120.53871155 388.17805481 C118.6352692 388.18308747 116.73181814 388.18546428 114.82836914 388.18530273 C111.9694092 388.18747575 109.11084438 388.20563389 106.25195312 388.22460938 C78.61136833 388.31004982 78.61136833 388.31004982 66 383 C64.58882605 382.68282186 63.17140579 382.39261814 61.75 382.125 C56.78188331 381.11409626 52.32517855 379.15893486 47.69921875 377.12109375 C45.45254522 376.18796017 43.37218469 375.50148322 41 375 C41 374.34 41 373.68 41 373 C40.45859375 372.88785156 39.9171875 372.77570313 39.359375 372.66015625 C36.49971779 371.86002037 33.94256292 370.6876185 31.25 369.4375 C30.26515625 368.98246094 29.2803125 368.52742188 28.265625 368.05859375 C27.51796875 367.70925781 26.7703125 367.35992187 26 367 C26 366.34 26 365.68 26 365 C25.4225 364.87625 24.845 364.7525 24.25 364.625 C21.97664233 363.99351176 20.0746471 363.11141809 18 362 C18 361.34 18 360.68 18 360 C13.4316468 357.64214028 9.02893321 357.57515888 4 358 C3.34 358.33 2.68 358.66 2 359 C0.63939241 359.20534782 -0.72818882 359.36591161 -2.09765625 359.5 C-2.89880859 359.5825 -3.69996094 359.665 -4.52539062 359.75 C-6.2206656 359.91704788 -7.91597836 360.08371282 -9.61132812 360.25 C-13.63524438 360.29591678 -13.63524438 360.29591678 -17 362 C-19.03398493 362.35911603 -21.07821813 362.66047471 -23.125 362.9375 C-24.37925781 363.11023438 -25.63351563 363.28296875 -26.92578125 363.4609375 C-29.6927487 363.83058338 -32.46114433 364.18754428 -35.23046875 364.5390625 C-35.91286621 364.62679932 -36.59526367 364.71453613 -37.29833984 364.80493164 C-39.23609733 365.05272972 -41.17467654 365.29407591 -43.11328125 365.53515625 C-45.88811894 365.69288645 -45.88811894 365.69288645 -47 367 C-53.30017167 367.73126993 -59.28577544 366.78058249 -65 364 C-65.33 363.34 -65.66 362.68 -66 362 C-67.65 362.33 -69.3 362.66 -71 363 C-70.34 362.67 -69.68 362.34 -69 362 C-69 361.34 -69 360.68 -69 360 C-70.32 359.67 -71.64 359.34 -73 359 C-73 358.34 -73 357.68 -73 357 C-73.86625 356.62875 -73.86625 356.62875 -74.75 356.25 C-77.3002997 354.83316683 -79.01785701 353.12372463 -81 351 C-81.33 351.66 -81.66 352.32 -82 353 C-84.31585666 350.49115529 -84.98576901 349.35577466 -85.125 345.875 C-85.08375 344.92625 -85.0425 343.9775 -85 343 C-85.33 342.34 -85.66 341.68 -86 341 C-86.99 341 -87.98 341 -89 341 C-88.92894043 340.41508789 -88.85788086 339.83017578 -88.78466797 339.22753906 C-88.4689083 336.56967557 -88.17178205 333.91004656 -87.875 331.25 C-87.76285156 330.32960938 -87.65070313 329.40921875 -87.53515625 328.4609375 C-87.39013672 327.12675781 -87.39013672 327.12675781 -87.2421875 325.765625 C-87.10079346 324.54020996 -87.10079346 324.54020996 -86.95654297 323.29003906 C-87.04424931 318.6682105 -90.19482458 315.03027288 -92.625 311.25 C-93.25664063 310.26515625 -93.88828125 309.2803125 -94.5390625 308.265625 C-95.02117187 307.51796875 -95.50328125 306.7703125 -96 306 C-96.66 306.99 -97.32 307.98 -98 309 C-101.88116483 302.17732078 -101.37545234 295.4339558 -101.25 287.75 C-101.24226563 285.831875 -101.24226563 285.831875 -101.234375 283.875 C-101.15496483 274.46489448 -101.15496483 274.46489448 -100 271 C-99.34 271 -98.68 271 -98 271 C-97.505 269.02 -97.505 269.02 -97 267 C-96.67 267.66 -96.34 268.32 -96 269 C-96 267.68 -96 266.36 -96 265 C-96.66 265.33 -97.32 265.66 -98 266 C-100 262.125 -100 262.125 -100 261 C-100.33 261 -100.66 261 -101 261 C-100.95875 259.865625 -100.9175 258.73125 -100.875 257.5625 C-100.85815232 254.37267196 -101.25414441 251.64401663 -102.0625 248.5625 C-103.00932664 244.64183757 -102.95499854 241.55892726 -102.34765625 237.59375 C-101.75848637 233.19814551 -101.66543865 228.76068002 -101.4765625 224.33203125 C-100.95726005 220.70117067 -99.80062498 218.17275898 -98 215 C-97.34 215.66 -96.68 216.32 -96 217 C-95.97301811 215.37509046 -95.95361243 213.75005367 -95.9375 212.125 C-95.92589844 211.22007812 -95.91429688 210.31515625 -95.90234375 209.3828125 C-95.83750743 206.9831415 -95.83750743 206.9831415 -97 205 C-97.09539378 203.53759542 -97.13073481 202.07097986 -97.1328125 200.60546875 C-97.13410156 199.73212891 -97.13539062 198.85878906 -97.13671875 197.95898438 C-97.13285156 197.04439453 -97.12898438 196.12980469 -97.125 195.1875 C-97.12886719 194.28451172 -97.13273437 193.38152344 -97.13671875 192.45117188 C-97.13041938 188.16445356 -97.04919698 184.18124425 -96 180 C-95.65596692 177.66822025 -95.32050798 175.33512959 -95 173 C-94.67 173.99 -94.34 174.98 -94 176 C-93.34 176 -92.68 176 -92 176 C-92.33 174.35 -92.66 172.7 -93 171 C-92.01 171 -91.02 171 -90 171 C-88.96986723 169.35178756 -87.96885372 167.68496298 -87 166 C-86.34 166 -85.68 166 -85 166 C-85 165.34 -85 164.68 -85 164 C-84.34 163.525625 -83.68 163.05125 -83 162.5625 C-82.34 162.046875 -81.68 161.53125 -81 161 C-81 160.01 -81 159.02 -81 158 C-80.01 158.33 -79.02 158.66 -78 159 C-76.38986637 158.02721093 -74.781338 157.05160039 -73.18359375 156.05859375 C-69.03059061 154.0452416 -64.53290852 153.671542 -60 153 C-63.96 153 -67.92 153 -72 153 C-72 152.67 -72 152.34 -72 152 C-71.16855469 151.90203125 -70.33710937 151.8040625 -69.48046875 151.703125 C-67.85044922 151.47882813 -67.85044922 151.47882813 -66.1875 151.25 C-64.56908203 151.04117188 -64.56908203 151.04117188 -62.91796875 150.828125 C-59.53015472 149.86665703 -58.85508172 148.87918046 -57 146 C-56.34 146 -55.68 146 -55 146 C-54.67 144.35 -54.34 142.7 -54 141 C-53.34 141.33 -52.68 141.66 -52 142 C-51.896875 141.236875 -51.79375 140.47375 -51.6875 139.6875 C-50.95524057 136.82503132 -50.27914649 135.80432431 -48 134 C-47.67 134 -47.34 134 -47 134 C-46.814375 132.824375 -46.814375 132.824375 -46.625 131.625 C-46 129 -46 129 -44 127 C-43.3574765 124.93125966 -43.3574765 124.93125966 -43 123 C-42.01 123 -41.02 123 -40 123 C-38.2170335 117.65110049 -38.18138653 111.40467708 -40 106.0625 C-41.29879254 102.08494786 -41.05658002 98.54426792 -40.875 94.390625 C-40.98132875 91.50645757 -41.35199654 89.1889658 -41.97973633 86.39868164 C-43.02245001 81.3111384 -43.35745692 76.41276279 -43.44921875 71.23046875 C-43.47095657 70.34643875 -43.4926944 69.46240875 -43.51509094 68.55158997 C-43.55862748 66.70221233 -43.59790876 64.85272991 -43.63305664 63.00317383 C-43.68770527 60.17688402 -43.75789544 57.35128156 -43.83007812 54.52539062 C-43.870705 52.71877031 -43.91044982 50.91212989 -43.94921875 49.10546875 C-43.96997971 48.26582077 -43.99074066 47.42617279 -44.01213074 46.56108093 C-44.08146345 42.55490935 -44.01923556 38.91127318 -43 35 C-42.34 35 -41.68 35 -41 35 C-41.061875 34.154375 -41.12375 33.30875 -41.1875 32.4375 C-40.95984372 28.26380157 -39.79792186 25.74567053 -38 22 C-37.01 22.99 -37.01 22.99 -36 24 C-35.67 21.69 -35.34 19.38 -35 17 C-34.01 17.99 -34.01 17.99 -33 19 C-33 18.34 -33 17.68 -33 17 C-32.68521554 15.66216607 -32.35412344 14.32796291 -32 13 C-30.68 13 -29.36 13 -28 13 C-26.61767557 11.37373596 -25.28062485 9.7074998 -24 8 C-23.34 8 -22.68 8 -22 8 C-22 6.68 -22 5.36 -22 4 C-20.9171875 4.061875 -20.9171875 4.061875 -19.8125 4.125 C-17.01431278 4.16306571 -17.01431278 4.16306571 -14.68359375 3.02734375 C-11.77449945 1.91367301 -9.34959491 1.63436616 -6.25 1.4375 C-2.81311556 1.48764046 -2.81311556 1.48764046 0 0 Z M0 2 C4 3 4 3 4 3 Z M15 11 C16 13 16 13 16 13 Z M19 16 C20 18 20 18 20 18 Z M-38 27 C-37 30 -37 30 -37 30 Z M-40 30 C-40 31.65 -40 33.3 -40 35 C-39.34 33.68 -38.68 32.36 -38 31 C-38.66 30.67 -39.32 30.34 -40 30 Z M27 30 C28 32 28 32 28 32 Z M-41 35 C-41 36.65 -41 38.3 -41 40 C-40.67 40 -40.34 40 -40 40 C-40 38.35 -40 36.7 -40 35 C-40.33 35 -40.66 35 -41 35 Z M30 39 C31 41 31 41 31 41 Z M-43 41 C-43 44.3 -43 47.6 -43 51 C-40.5705484 47.3558226 -40.83820425 45.28758728 -41 41 C-41.66 41 -42.32 41 -43 41 Z M32 41 C31.32041397 43.39719432 31.32041397 43.39719432 31 46 C31.66 46.66 32.32 47.32 33 48 C33 45.69 33 43.38 33 41 C32.67 41 32.34 41 32 41 Z M33 48 C33 49.65 33 51.3 33 53 C33.33 53 33.66 53 34 53 C34 51.35 34 49.7 34 48 C33.67 48 33.34 48 33 48 Z M93 49 C95.46002787 51.46002787 96.84793839 51.24552005 100.20666504 51.27789307 C100.91190308 51.2738446 101.61714111 51.26979614 102.34375 51.265625 C103.43109436 51.26849518 103.43109436 51.26849518 104.54040527 51.27142334 C106.07365262 51.27278487 107.6069115 51.26909064 109.14013672 51.26074219 C111.49082259 51.25004178 113.84074423 51.26063808 116.19140625 51.2734375 C117.67968919 51.2721159 119.16797166 51.26955349 120.65625 51.265625 C121.36148804 51.26967346 122.06672607 51.27372192 122.79333496 51.27789307 C126.84601687 51.35277396 126.84601687 51.35277396 130 49 C117.79 49 105.58 49 93 49 Z M83 51 C83 51.33 83 51.66 83 52 C86.63 52 90.26 52 94 52 C94 51.67 94 51.34 94 51 C90.37 51 86.74 51 83 51 Z M129 51 C129 51.33 129 51.66 129 52 C132.63 52 136.26 52 140 52 C140 51.67 140 51.34 140 51 C136.37 51 132.74 51 129 51 Z M35 55 C33.71387324 56.05978933 33.71387324 56.05978933 33.90234375 58.50390625 C33.91394531 59.51324219 33.92554688 60.52257812 33.9375 61.5625 C33.94652344 62.57441406 33.95554688 63.58632812 33.96484375 64.62890625 C33.97644531 65.41136719 33.98804688 66.19382812 34 67 C35.32 67.33 36.64 67.66 38 68 C37.15811388 66.05270463 37.15811388 66.05270463 36 65 C35.92794489 63.31391034 35.91613932 61.62499341 35.9375 59.9375 C35.94652344 59.01839844 35.95554688 58.09929687 35.96484375 57.15234375 C35.97644531 56.44207031 35.98804688 55.73179688 36 55 C35.67 55 35.34 55 35 55 Z M-40 98 C-40 99.65 -40 101.3 -40 103 C-39.34 102.34 -38.68 101.68 -38 101 C-38 100.01 -38 99.02 -38 98 C-38.66 98 -39.32 98 -40 98 Z M-38 106 C-37 109 -37 109 -37 109 Z M-41 125 C-40 127 -40 127 -40 127 Z M-43 128 C-42.67 128.66 -42.34 129.32 -42 130 C-41.67 129.34 -41.34 128.68 -41 128 C-41.66 128 -42.32 128 -43 128 Z M259 136 C260 138 260 138 260 138 Z M-51 139 C-51 139.66 -51 140.32 -51 141 C-50.34 141 -49.68 141 -49 141 C-49 140.34 -49 139.68 -49 139 C-49.66 139 -50.32 139 -51 139 Z M260 139 C260.66 139.66 261.32 140.32 262 141 C262 140.34 262 139.68 262 139 C261.34 139 260.68 139 260 139 Z M-54 144 C-53.67 144.66 -53.34 145.32 -53 146 C-52.67 145.34 -52.34 144.68 -52 144 C-52.66 144 -53.32 144 -54 144 Z M264 145 C265 147 265 147 265 147 Z M272 162 C272 163.32 272 164.64 272 166 C272.33 164.68 272.66 163.36 273 162 C272.67 162 272.34 162 272 162 Z M275 172 C275 173.65 275 175.3 275 177 C275.33 177 275.66 177 276 177 C276 175.35 276 173.7 276 172 C275.67 172 275.34 172 275 172 Z M277 176 C276.67 178.31 276.34 180.62 276 183 C276.99 183.495 276.99 183.495 278 184 C278 181.36 278 178.72 278 176 C277.67 176 277.34 176 277 176 Z M-95 177 C-94.67 177.66 -94.34 178.32 -94 179 C-93.67 178.34 -93.34 177.68 -93 177 C-93.66 177 -94.32 177 -95 177 Z M278 185 C278 187.31 278 189.62 278 192 C278.33 192 278.66 192 279 192 C279 189.69 279 187.38 279 185 C278.67 185 278.34 185 278 185 Z M-95 211 C-94 214 -94 214 -94 214 Z M-100 223 C-99.67 223.66 -99.34 224.32 -99 225 C-98.67 224.34 -98.34 223.68 -98 223 C-98.66 223 -99.32 223 -100 223 Z M275 265 C276 268 276 268 276 268 Z M-98 272 C-97 275 -97 275 -97 275 Z M272 273 C273 275 273 275 273 275 Z M-100 275 C-100 277.64 -100 280.28 -100 283 C-97.8480563 279.77208445 -97.79913557 278.71599191 -98 275 C-98.66 275 -99.32 275 -100 275 Z M271 275 C271.33 275.99 271.66 276.98 272 278 C272 277.01 272 276.02 272 275 C271.67 275 271.34 275 271 275 Z M270 278 C271 280 271 280 271 280 Z M267 286 C268 288 268 288 268 288 Z M-100 294 C-100 296.31 -100 298.62 -100 301 C-99.34 301 -98.68 301 -98 301 C-98.33 298.69 -98.66 296.38 -99 294 C-99.33 294 -99.66 294 -100 294 Z M-98 302 C-97 305 -97 305 -97 305 Z M259 302 C260 304 260 304 260 304 Z M257 305 C257 305.66 257 306.32 257 307 C257.66 307 258.32 307 259 307 C259 306.34 259 305.68 259 305 C258.34 305 257.68 305 257 305 Z M252 313 C252 313.66 252 314.32 252 315 C252.66 315 253.32 315 254 315 C254 314.34 254 313.68 254 313 C253.34 313 252.68 313 252 313 Z M248 319 C249 321 249 321 249 321 Z M244 324 C244.33 324.66 244.66 325.32 245 326 C245.33 325.34 245.66 324.68 246 324 C245.34 324 244.68 324 244 324 Z M242 327 C242 330 242 330 242 330 Z M-84 346 C-84 346.66 -84 347.32 -84 348 C-83.34 348 -82.68 348 -82 348 C-82 347.34 -82 346.68 -82 346 C-82.66 346 -83.32 346 -84 346 Z " fill="#040400" transform="translate(107,7)"/>
<path d="M0 0 C2.27449897 0.03157998 4.54829965 0.04103932 6.82299805 0.046875 C14.37146129 0.08740696 21.81259068 0.35763572 29.31323242 1.28125 C29.31323242 1.94125 29.31323242 2.60125 29.31323242 3.28125 C30.3006543 3.24257812 31.28807617 3.20390625 32.30541992 3.1640625 C36.54509803 3.16619621 40.36022942 4.06929646 44.43823242 5.15625 C45.47270508 5.41728516 45.47270508 5.41728516 46.52807617 5.68359375 C50.24332019 6.64259555 53.79026052 7.75965513 57.31323242 9.28125 C57.31323242 9.94125 57.31323242 10.60125 57.31323242 11.28125 C57.82885742 11.405 58.34448242 11.52875 58.87573242 11.65625 C62.04025593 12.46766628 65.17448227 13.3758413 68.31323242 14.28125 C68.31323242 14.94125 68.31323242 15.60125 68.31323242 16.28125 C69.01448242 16.36375 69.71573242 16.44625 70.43823242 16.53125 C74.00762828 17.46239674 76.29550384 19.16883999 79.31323242 21.28125 C80.36768555 21.86648437 81.42213867 22.45171875 82.50854492 23.0546875 C99.58803055 32.74232959 114.18229164 47.15513512 125.68823242 62.90625 C126.24220703 63.66446045 126.79618164 64.4226709 127.36694336 65.20385742 C131.973275 71.75444855 131.973275 71.75444855 132.31323242 76.28125 C132.97323242 76.28125 133.63323242 76.28125 134.31323242 76.28125 C135.66717685 78.93899276 136.99819923 81.60421814 138.31323242 84.28125 C138.9087793 85.47814453 138.9087793 85.47814453 139.51635742 86.69921875 C144.92841057 98.02000082 149.56113691 110.6381213 149.31323242 123.28125 C149.97323242 123.28125 150.63323242 123.28125 151.31323242 123.28125 C152.9927963 143.67595422 153.74795255 165.02571477 150.31323242 185.28125 C149.98323242 185.61125 149.65323242 185.94125 149.31323242 186.28125 C148.81539921 189.01933268 148.4129074 191.76619038 148.00854492 194.51953125 C147.26308489 197.4804315 146.16473328 198.90628816 144.31323242 201.28125 C143.6445184 203.38902297 143.6445184 203.38902297 143.31323242 205.59375 C142.48589473 209.82859717 141.14003755 213.37852996 139.31323242 217.28125 C138.65323242 217.28125 137.99323242 217.28125 137.31323242 217.28125 C136.32323242 220.25125 135.33323242 223.22125 134.31323242 226.28125 C133.65323242 226.28125 132.99323242 226.28125 132.31323242 226.28125 C132.07991211 226.96703125 131.8465918 227.6528125 131.60620117 228.359375 C130.03309722 231.91430478 127.91160939 234.91290695 125.62573242 238.03125 C125.1794751 238.64669678 124.73321777 239.26214355 124.2734375 239.89624023 C114.0246312 253.9683209 114.0246312 253.9683209 108.31323242 259.28125 C107.50112305 260.04050781 106.68901367 260.79976563 105.85229492 261.58203125 C98.58004813 268.28125 98.58004813 268.28125 96.31323242 268.28125 C96.31323242 268.94125 96.31323242 269.60125 96.31323242 270.28125 C94.29370117 271.76171875 94.29370117 271.76171875 91.50073242 273.46875 C89.98866211 274.40074219 89.98866211 274.40074219 88.44604492 275.3515625 C87.4122168 275.98835938 86.37838867 276.62515625 85.31323242 277.28125 C83.50008316 278.46775844 81.68756416 279.65523064 79.87573242 280.84375 C71.51558156 286.1476295 62.89390431 290.31546277 53.49291992 293.421875 C51.15080548 294.17803197 51.15080548 294.17803197 49.31323242 296.28125 C47.18432617 296.87890625 47.18432617 296.87890625 44.75073242 297.34375 C41.74551272 297.74602866 41.74551272 297.74602866 39.31323242 299.28125 C35.95796028 299.85850112 32.59144871 300.31210686 29.21948242 300.78125 C26.42847959 300.97367705 26.42847959 300.97367705 25.31323242 302.28125 C23.90802257 302.38971473 22.49747234 302.43026094 21.08813477 302.44238281 C20.18984955 302.45199036 19.29156433 302.4615979 18.36605835 302.47149658 C17.38698517 302.47574646 16.40791199 302.47999634 15.39916992 302.484375 C14.39616852 302.49007507 13.39316711 302.49577515 12.35977173 302.50164795 C10.22952332 302.51111765 8.09926013 302.51763971 5.96899414 302.52148438 C2.72279833 302.53114711 -0.52275296 302.56213427 -3.76879883 302.59375 C-5.83780548 302.60028411 -7.90681667 302.60553297 -9.97583008 302.609375 C-11.42622177 302.6278952 -11.42622177 302.6278952 -12.90591431 302.64678955 C-18.66638236 302.62794113 -22.54143073 301.86866449 -27.68676758 299.28125 C-30.74906564 298.58813789 -30.74906564 298.58813789 -33.74926758 298.21875 C-37.9540454 297.63859012 -41.68006784 296.68074409 -45.68676758 295.28125 C-47.76976117 294.67591303 -49.85310507 294.07178041 -51.93676758 293.46875 C-57.80815362 291.67097469 -63.46581509 289.56107913 -68.68676758 286.28125 C-69.01676758 285.62125 -69.34676758 284.96125 -69.68676758 284.28125 C-71.71140013 283.62911708 -71.71140013 283.62911708 -73.68676758 283.28125 C-73.68676758 282.62125 -73.68676758 281.96125 -73.68676758 281.28125 C-74.34676758 281.28125 -75.00676758 281.28125 -75.68676758 281.28125 C-74.56722958 278.76228951 -73.36695206 276.88390345 -71.62426758 274.71875 C-69.52292409 272.36098981 -69.52292409 272.36098981 -68.68676758 269.28125 C-68.02676758 269.28125 -67.36676758 269.28125 -66.68676758 269.28125 C-65.67047436 265.06160054 -65.52078575 261.05251004 -65.49926758 256.71875 C-65.48508789 255.41808594 -65.4709082 254.11742187 -65.45629883 252.77734375 C-65.6716811 249.51010416 -66.1076082 248.03385587 -67.68676758 245.28125 C-67.68676758 244.29125 -67.68676758 243.30125 -67.68676758 242.28125 C-65.14439247 240.24734992 -63.63124672 239.19353718 -60.33129883 239.5 C-57.27990858 240.40144468 -55.18247715 241.73195686 -52.56176758 243.53125 C-42.05174864 250.42491834 -30.56557507 255.29116801 -17.99926758 256.46875 C-17.19328125 256.54697998 -16.38729492 256.62520996 -15.55688477 256.70581055 C4.34633828 258.45067245 26.23474085 258.56585876 44.48901367 249.16015625 C46.31323242 248.28125 46.31323242 248.28125 49.31323242 248.28125 C49.31323242 247.62125 49.31323242 246.96125 49.31323242 246.28125 C50.05186523 245.95253906 50.79049805 245.62382812 51.55151367 245.28515625 C59.47962283 241.56791066 65.73785509 237.01766372 72.31323242 231.28125 C72.92553711 230.81332031 73.5378418 230.34539062 74.16870117 229.86328125 C78.43721627 226.56810926 81.67147767 222.54869098 85.00073242 218.34375 C85.46479492 217.75827393 85.92885742 217.17279785 86.40698242 216.56958008 C89.43792223 212.64933895 91.94070372 208.63181201 94.31323242 204.28125 C94.97323242 204.28125 95.63323242 204.28125 96.31323242 204.28125 C96.39573242 203.45625 96.47823242 202.63125 96.56323242 201.78125 C97.34779951 198.11993694 98.62036902 195.385227 100.37573242 192.11328125 C101.44486153 190.13746068 101.44486153 190.13746068 102.31323242 187.28125 C102.97323242 187.28125 103.63323242 187.28125 104.31323242 187.28125 C104.43698242 186.146875 104.56073242 185.0125 104.68823242 183.84375 C106.25073242 171.34375 106.25073242 171.34375 108.31323242 169.28125 C108.46905546 167.94109779 108.56367384 166.59366097 108.62963867 165.24609375 C108.66774658 164.51769287 108.70585449 163.78929199 108.74511719 163.03881836 C108.78822021 162.1081958 108.83132324 161.17757324 108.87573242 160.21875 C109.02010742 157.269375 109.16448242 154.32 109.31323242 151.28125 C100.73323242 151.28125 92.15323242 151.28125 83.31323242 151.28125 C83.35448242 153.59125 83.39573242 155.90125 83.43823242 158.28125 C83.45510262 163.9399975 83.28974182 168.95408657 81.31323242 174.28125 C80.8981543 175.42335937 80.48307617 176.56546875 80.05541992 177.7421875 C77.24443882 185.22204731 74.27308029 192.93204716 69.31323242 199.28125 C68.65323242 199.28125 67.99323242 199.28125 67.31323242 199.28125 C67.08764648 199.99410156 66.86206055 200.70695313 66.62963867 201.44140625 C62.82507728 209.64887252 53.22452561 217.16042256 45.31323242 221.28125 C44.65323242 221.28125 43.99323242 221.28125 43.31323242 221.28125 C42.98323242 222.27125 42.65323242 223.26125 42.31323242 224.28125 C40.60620117 225.23046875 40.60620117 225.23046875 38.50073242 225.96875 C37.47012695 226.34580078 37.47012695 226.34580078 36.41870117 226.73046875 C34.31323242 227.28125 34.31323242 227.28125 30.31323242 227.28125 C30.31323242 227.94125 30.31323242 228.60125 30.31323242 229.28125 C9.04662717 235.70974854 -14.40173219 235.7044402 -34.68676758 226.28125 C-34.68676758 225.62125 -34.68676758 224.96125 -34.68676758 224.28125 C-35.40864258 224.19875 -36.13051758 224.11625 -36.87426758 224.03125 C-40.26688416 223.12655224 -42.02561979 221.53299043 -44.68676758 219.28125 C-46.00676758 218.62125 -47.32676758 217.96125 -48.68676758 217.28125 C-48.68676758 213.65125 -48.68676758 210.02125 -48.68676758 206.28125 C-49.34676758 206.28125 -50.00676758 206.28125 -50.68676758 206.28125 C-50.95489258 205.394375 -51.22301758 204.5075 -51.49926758 203.59375 C-53.41501125 197.99048408 -53.41501125 197.99048408 -57.68676758 194.28125 C-57.68676758 191.28125 -57.68676758 191.28125 -56.07739258 189.66796875 C-55.37098633 189.10722656 -54.66458008 188.54648437 -53.93676758 187.96875 C-49.40982779 184.17092795 -45.62572149 180.38445041 -44.68676758 174.28125 C-44.02676758 174.28125 -43.36676758 174.28125 -42.68676758 174.28125 C-42.52471515 157.61878527 -42.52471515 157.61878527 -51.01879883 143.9765625 C-53.18948634 142.00072411 -55.39477644 140.11384422 -57.68676758 138.28125 C-57.38770508 137.70761719 -57.08864258 137.13398438 -56.78051758 136.54296875 C-55.66061284 134.34370277 -55.66061284 134.34370277 -54.96801758 132.17578125 C-54.09397972 129.84647035 -53.32608383 128.16646369 -51.68676758 126.28125 C-48.33525858 125.2852827 -45.16742848 125.17497028 -41.68676758 125.28125 C-41.68676758 124.62125 -41.68676758 123.96125 -41.68676758 123.28125 C-40.02397431 122.2748225 -38.35693274 121.27539593 -36.68676758 120.28125 C-35.69676758 118.79625 -35.69676758 118.79625 -34.68676758 117.28125 C-34.02676758 117.28125 -33.36676758 117.28125 -32.68676758 117.28125 C-32.09985343 108.27457804 -32.09985343 108.27457804 -34.18676758 99.65625 C-38.44348477 95.61236867 -42.42857717 93.47592159 -48.31176758 92.96875 C-51.63823581 93.18554007 -51.63823581 93.18554007 -54.59301758 94.03515625 C-57.68676758 94.28125 -57.68676758 94.28125 -60.17895508 92.734375 C-60.9652832 92.00734375 -61.75161133 91.2803125 -62.56176758 90.53125 C-66.85344329 86.81093203 -70.29473538 84.94787813 -75.68676758 83.28125 C-81.41982154 77.54819604 -80.9851963 52.15561076 -81.12426758 44.40625 C-80.4945993 26.24425574 -80.4945993 26.24425574 -76.38598633 20.4453125 C-74.55617031 19.01959977 -72.82317228 18.19529751 -70.68676758 17.28125 C-69.62844727 16.75015625 -68.57012695 16.2190625 -67.47973633 15.671875 C-58.50715175 11.28125 -58.50715175 11.28125 -53.68676758 11.28125 C-53.68676758 10.62125 -53.68676758 9.96125 -53.68676758 9.28125 C-49.02010091 7.94791667 -44.35343424 6.61458333 -39.68676758 5.28125 C-38.61571777 4.96236816 -37.54466797 4.64348633 -36.44116211 4.31494141 C-24.34546218 0.9846518 -12.50346548 -0.1744733 0 0 Z " fill="#EDFC00" transform="translate(216.686767578125,75.71875)"/>
<path d="M0 0 C4.14418615 -0.12442129 8.28735819 -0.21471744 12.43286133 -0.2746582 C13.84028075 -0.2996668 15.24757206 -0.33368615 16.65454102 -0.37719727 C29.84687092 -0.77469746 29.84687092 -0.77469746 34.3125 2.3125 C38.4908096 6.4908096 41.18143868 10.07905534 41.375 16.125 C40.74537558 22.63111905 38.94918521 25.66946294 34 30 C33.34 30 32.68 30 32 30 C32 30.66 32 31.32 32 32 C18.22370623 36.13288813 2.99419307 35.25020936 -11.28198242 35.55224609 C-13.69458504 35.60448041 -16.10704401 35.66146688 -18.51953125 35.71875 C-19.23849075 35.73232544 -19.95745026 35.74590088 -20.69819641 35.7598877 C-30.18454971 35.80518152 -30.18454971 35.80518152 -39.0625 38.5625 C-41.89825024 42.13005675 -41.37276241 44.52685102 -41 49 C-38.017891 50.71292744 -35.90457592 51.24583349 -32.47680664 51.21728516 C-31.58384384 51.21409271 -30.69088104 51.21090027 -29.77085876 51.20761108 C-28.32387352 51.18605453 -28.32387352 51.18605453 -26.84765625 51.1640625 C-25.83429703 51.15637848 -24.82093781 51.14869446 -23.77687073 51.14077759 C-10.89078435 51.01788802 1.99507652 50.65981608 14.87573242 50.27636719 C18.08494925 50.18240417 21.29427658 50.10183542 24.50390625 50.0234375 C25.95694908 49.97514297 25.95694908 49.97514297 27.43934631 49.9258728 C33.41553368 49.79286278 37.96471763 50.35930683 43.3125 53.25 C45.6273275 55.65056185 45.71084993 57.74706175 46 61 C46.66 61 47.32 61 48 61 C48.71144857 67.52161191 47.36621649 70.82195906 43.703125 76.21484375 C41.80736868 78.20190943 40.6820086 78.63268143 38 79 C38 79.66 38 80.32 38 81 C37.00097656 81.13277344 36.00195312 81.26554687 34.97265625 81.40234375 C33.03712891 81.66724609 33.03712891 81.66724609 31.0625 81.9375 C29.13083984 82.19853516 29.13083984 82.19853516 27.16015625 82.46484375 C24.14533687 82.66162423 24.14533687 82.66162423 23 84 C21.37118433 84.16083282 19.73586692 84.25641924 18.10058594 84.32543945 C17.05570007 84.37251541 16.01081421 84.41959137 14.93426514 84.46809387 C13.79580139 84.51600571 12.65733765 84.56391754 11.484375 84.61328125 C9.09501177 84.72767666 6.70568989 84.84293843 4.31640625 84.95898438 C0.53332283 85.13848807 -3.24968507 85.31248677 -7.03369141 85.47143555 C-10.67451687 85.62680472 -14.31357861 85.80565061 -17.953125 85.98828125 C-19.08349182 86.03012039 -20.21385864 86.07195953 -21.378479 86.11506653 C-27.58049496 86.44281629 -27.58049496 86.44281629 -33.22167969 88.84448242 C-35.30912988 90.99348146 -35.30912988 90.99348146 -35.5 94.5 C-34.8908785 98.89006294 -34.8908785 98.89006294 -32 102 C-28.93257154 102.54755407 -25.91752348 102.41860536 -22.8125 102.3125 C-21.90685303 102.29703125 -21.00120605 102.2815625 -20.06811523 102.265625 C-13.62348871 102.12936296 -7.21297305 101.69460557 -0.78515625 101.22265625 C10.43528326 100.57693021 21.76468266 100.92596354 33 101 C33 101.66 33 102.32 33 103 C33.8971875 103.4021875 33.8971875 103.4021875 34.8125 103.8125 C38.31088537 105.71162349 39.73345454 107.20036361 41 111 C41.44393742 120.17470665 41.44393742 120.17470665 39 124 C34.48585827 127.21198546 31.65584123 128.55178939 26 128 C26 128.66 26 129.32 26 130 C25.04468384 130.07516846 25.04468384 130.07516846 24.07006836 130.15185547 C17.5472353 130.66630944 11.02513002 131.18930069 4.50341797 131.71777344 C2.23699564 131.90035073 -0.02959706 132.08083046 -2.29638672 132.25878906 C-5.36476617 132.49994695 -8.4324023 132.7491184 -11.5 133 C-12.88457397 133.10610596 -12.88457397 133.10610596 -14.29711914 133.21435547 C-22.80684395 133.82814184 -22.80684395 133.82814184 -31 136 C-33.47342266 139.71013399 -33.38503486 141.61060262 -33 146 C-32.09764165 148.48105194 -32.09764165 148.48105194 -30 150 C-24.75735923 151.05778376 -19.90941045 151.01427517 -14.625 150.625 C-13.90183594 150.58117187 -13.17867188 150.53734375 -12.43359375 150.4921875 C-8.91875735 150.54192343 -8.91875735 150.54192343 -6 149 C-2.3570985 148.41684778 1.32075522 148.23340076 5 148 C6.27230469 147.89816406 7.54460937 147.79632813 8.85546875 147.69140625 C18.67306184 147.21651774 18.67306184 147.21651774 22.2890625 149.3515625 C24.82576135 152.08061766 25.84882836 154.39531343 26.75 158 C25.68706502 162.25173994 23.27953648 165.12828153 20 168 C19.34 168 18.68 168 18 168 C18 168.66 18 169.32 18 170 C17.25016846 170.07516846 16.50033691 170.15033691 15.7277832 170.2277832 C12.25509756 170.58084269 8.78385686 170.94661498 5.3125 171.3125 C3.54422852 171.48942383 3.54422852 171.48942383 1.74023438 171.66992188 C-5.33485236 172.42589005 -12.12102129 173.60201126 -19.0324707 175.28881836 C-29.28650765 177.74624408 -39.86429658 179.09262031 -50.375 179.8125 C-51.07012695 179.8655127 -51.76525391 179.91852539 -52.48144531 179.97314453 C-57.43809948 180.24579719 -60.89124751 179.68334255 -64.80078125 176.5625 C-65.29964844 176.046875 -65.79851562 175.53125 -66.3125 175 C-66.82425781 174.484375 -67.33601563 173.96875 -67.86328125 173.4375 C-69 172 -69 172 -69 170 C-69.66 170 -70.32 170 -71 170 C-72.06872841 166.79381477 -72.04477578 164.70161306 -71.921875 161.34375 C-71.88320312 159.68666016 -71.88320312 159.68666016 -71.84375 157.99609375 C-71.78123737 155.6648936 -71.70310186 153.33406016 -71.609375 151.00390625 C-71.58875 149.89917969 -71.568125 148.79445313 -71.546875 147.65625 C-71.49805176 146.13741211 -71.49805176 146.13741211 -71.44824219 144.58789062 C-71.74636238 141.76882911 -71.74636238 141.76882911 -74.43383789 140.24731445 C-75.70408813 139.6298938 -75.70408813 139.6298938 -77 139 C-83.070901 132.52123485 -84.40860264 125.65776656 -84.2578125 116.9765625 C-83.8302974 112.04070632 -82.56661317 107.85672672 -79.3125 104 C-77.6462274 101.46091794 -77.34766845 99.22981512 -77.4375 96.21484375 C-78.38656572 92.47789748 -80.86770534 89.97862941 -83.30859375 87.07421875 C-88.02878842 81.28571213 -87.59118588 74.12238224 -87 67 C-85.78666937 60.97413105 -82.58138834 56.08368877 -78 52 C-77.34 52 -76.68 52 -76 52 C-77.03934038 45.04368688 -77.03934038 45.04368688 -80.125 38.8125 C-83.60643788 33.31549282 -82.6460555 26.19809496 -82 20 C-80.32580853 13.29277041 -75.51430013 8.90643438 -70 5 C-66.4838783 3.82795943 -63.24853875 3.7897815 -59.5859375 3.71875 C-58.49232407 3.69113586 -58.49232407 3.69113586 -57.37661743 3.66296387 C-55.04282618 3.60428661 -52.70895942 3.55152335 -50.375 3.5 C-38.25054487 3.28858779 -38.25054487 3.28858779 -26.18261719 2.20947266 C-21.28666488 1.73959267 -16.35069687 1.89899996 -11.4375 1.9375 C-9.78137695 1.94426758 -9.78137695 1.94426758 -8.09179688 1.95117188 C-5.394473 1.9628486 -2.69726653 1.97922475 0 2 C0 1.34 0 0.68 0 0 Z " fill="#EBFA00" transform="translate(110,175)"/>
<path d="M0 0 C6.06506476 2.59931347 9.52775044 7.46741572 12 13.375 C12.69161258 15.24094252 13.35478243 17.11751129 14 19 C14.21188965 19.61794434 14.4237793 20.23588867 14.64208984 20.87255859 C15.33926027 22.9311327 16.01689618 24.99512698 16.6875 27.0625 C17.00944336 28.03485596 17.00944336 28.03485596 17.33789062 29.02685547 C22.2150171 44.55029716 22.73538337 66.439716 15.91015625 81.38671875 C14.73338008 84.76553102 14.77143338 87.68093748 14.8125 91.25 C14.82216797 93.11398438 14.82216797 93.11398438 14.83203125 95.015625 C14.66097641 97.88306123 14.66097641 97.88306123 16 99 C16.37723911 101.938339 16.70781593 104.86554971 17 107.8125 C17.1640746 109.44427313 17.3306585 111.0757963 17.5 112.70703125 C17.60828125 113.79721558 17.60828125 113.79721558 17.71875 114.90942383 C17.99949643 116.99625687 18.48818773 118.95985579 19 121 C19.06624507 122.74886981 19.08552595 124.50002748 19.0625 126.25 C19.05347656 127.14203125 19.04445312 128.0340625 19.03515625 128.953125 C19.02355469 129.62859375 19.01195312 130.3040625 19 131 C11.45806496 131.62187885 3.92328747 132.02284768 -3.640625 132.25390625 C-4.64994583 132.28501747 -4.64994583 132.28501747 -5.67965698 132.3167572 C-9.12041987 132.42116434 -12.56125008 132.51804605 -16.00244141 132.60717773 C-17.27780762 132.64399658 -18.55317383 132.68081543 -19.8671875 132.71875 C-21.02331543 132.74904297 -22.17944336 132.77933594 -23.37060547 132.81054688 C-25.92441237 132.70625847 -25.92441237 132.70625847 -27 134 C-28.99958364 134.04080783 -31.00045254 134.04254356 -33 134 C-32.37781425 130.42243194 -30.89653257 128.21031897 -28.75 125.3125 C-17.29811066 109.27515189 -16.737853 94.4280051 -17 75 C-17.66 75 -18.32 75 -19 75 C-21.42823127 65.35252838 -22.49006568 56.52133487 -22.375 46.5625 C-22.36557373 45.29494873 -22.35614746 44.02739746 -22.34643555 42.72143555 C-22.13690504 29.72970964 -20.76719014 18.36780953 -14 7 C-13.34 7 -12.68 7 -12 7 C-11.67 5.68 -11.34 4.36 -11 3 C-10.34 3 -9.68 3 -9 3 C-9 2.34 -9 1.68 -9 1 C-5.93570224 -0.53214888 -3.3834358 -0.22938548 0 0 Z " fill="#EBFA00" transform="translate(104,27)"/>
<path d="M0 0 C0.89203125 0.10183594 1.7840625 0.20367187 2.703125 0.30859375 C3.37859375 0.39238281 4.0540625 0.47617188 4.75 0.5625 C4.75 1.2225 4.75 1.8825 4.75 2.5625 C5.348125 2.665625 5.94625 2.76875 6.5625 2.875 C9.06258286 3.66074033 10.12535082 4.53168853 11.75 6.5625 C11.75 7.2225 11.75 7.8825 11.75 8.5625 C12.41 8.5625 13.07 8.5625 13.75 8.5625 C15.43175958 13.60777875 15.85791864 18.20230851 13.55078125 23.1171875 C9.65964456 29.25283377 9.65964456 29.25283377 6.546875 30.3125 C5.65742188 30.43625 5.65742188 30.43625 4.75 30.5625 C4.75 31.2225 4.75 31.8825 4.75 32.5625 C-0.27439385 34.23729795 -5.15085558 33.79865622 -10.25 32.5625 C-10.25 31.9025 -10.25 31.2425 -10.25 30.5625 C-10.889375 30.294375 -11.52875 30.02625 -12.1875 29.75 C-14.25 28.5625 -14.25 28.5625 -15.25 25.5625 C-15.91 25.5625 -16.57 25.5625 -17.25 25.5625 C-18.74352829 22.57544343 -18.51567862 19.5243749 -18.5625 16.25 C-18.59988281 14.93386719 -18.63726562 13.61773437 -18.67578125 12.26171875 C-18.19008242 8.0419317 -17.21927478 6.5209182 -14.25 3.5625 C-9.39166114 0.1616628 -5.84914042 -0.69266137 0 0 Z " fill="#070800" transform="translate(271.25,168.4375)"/>
<path d="M0 0 C8.58 0 17.16 0 26 0 C26.020625 2.949375 26.04125 5.89875 26.0625 8.9375 C26.071604 9.86812256 26.08070801 10.79874512 26.09008789 11.75756836 C26.09258545 12.48596924 26.09508301 13.21437012 26.09765625 13.96484375 C26.10551147 15.08814087 26.10551147 15.08814087 26.11352539 16.23413086 C26 18 26 18 25 19 C24.60851239 20.51165654 24.26027543 22.03469632 23.9375 23.5625 C23.76089844 24.38878906 23.58429688 25.21507812 23.40234375 26.06640625 C23.26957031 26.70449219 23.13679688 27.34257812 23 28 C21.80382066 24.20929083 22.50313642 21.62501729 23.453125 17.79296875 C24.53660213 12.25949625 24.67264727 6.61955515 25 1 C17.41 1 9.82 1 2 1 C1.75042084 5.89098109 1.75042084 5.89098109 1.52197266 10.78295898 C1.41954818 12.52765111 1.21257835 14.26528048 1 16 C0.34 16.33 -0.32 16.66 -1 17 C-0.67 11.39 -0.34 5.78 0 0 Z " fill="#505500" transform="translate(300,227)"/>
<path d="M0 0 C9.9 0 19.8 0 30 0 C30 0.33 30 0.66 30 1 C29.03175293 1.03758423 29.03175293 1.03758423 28.04394531 1.07592773 C25.11244106 1.19214433 22.18123783 1.31475442 19.25 1.4375 C18.23421875 1.47681641 17.2184375 1.51613281 16.171875 1.55664062 C15.1921875 1.59853516 14.2125 1.64042969 13.203125 1.68359375 C11.85202637 1.73858032 11.85202637 1.73858032 10.47363281 1.79467773 C8.06981347 1.92035131 8.06981347 1.92035131 6.08203125 2.51367188 C3.19147181 3.18885884 0.45036629 3.11113803 -2.515625 3.09765625 C-3.76601562 3.09443359 -5.01640625 3.09121094 -6.3046875 3.08789062 C-8.25761719 3.07532227 -8.25761719 3.07532227 -10.25 3.0625 C-12.22613281 3.05573242 -12.22613281 3.05573242 -14.2421875 3.04882812 C-17.49483741 3.03704316 -20.74739584 3.02059011 -24 3 C-24 2.67 -24 2.34 -24 2 C-16.08 2 -8.16 2 0 2 C0 1.34 0 0.68 0 0 Z " fill="#A8B300" transform="translate(110,175)"/>
<path d="M0 0 C0.33 0 0.66 0 1 0 C1 10.56 1 21.12 1 32 C0.67 32 0.34 32 0 32 C-2.23833963 26.59956152 -2.30067054 21.74266107 -2.25 16 C-2.25773438 15.1234375 -2.26546875 14.246875 -2.2734375 13.34375 C-2.25883881 8.49698345 -1.8850424 4.54803881 0 0 Z " fill="#000000" transform="translate(9,186)"/>
<path d="M0 0 C0 0.33 0 0.66 0 1 C-0.72179443 1.05534912 -1.44358887 1.11069824 -2.18725586 1.16772461 C-5.43772168 1.4196154 -8.68759621 1.67846301 -11.9375 1.9375 C-13.07380859 2.02451172 -14.21011719 2.11152344 -15.38085938 2.20117188 C-16.46044922 2.28818359 -17.54003906 2.37519531 -18.65234375 2.46484375 C-19.65257568 2.543396 -20.65280762 2.62194824 -21.68334961 2.70288086 C-23.95853115 2.75472794 -23.95853115 2.75472794 -25 4 C-27.69654854 4.07319621 -30.36691458 4.09242537 -33.0625 4.0625 C-33.82111328 4.05798828 -34.57972656 4.05347656 -35.36132812 4.04882812 C-37.24091871 4.0370068 -39.12046899 4.01907078 -41 4 C-41 3.67 -41 3.34 -41 3 C-11.65458453 -0.58165209 -11.65458453 -0.58165209 0 0 Z " fill="#686F00" transform="translate(128,322)"/>
<path d="M0 0 C0.33 0 0.66 0 1 0 C1 10.56 1 21.12 1 32 C0.67 32 0.34 32 0 32 C-0.90103679 26.62238358 -1.15242049 21.44753681 -1.125 16 C-1.12886719 15.23171875 -1.13273437 14.4634375 -1.13671875 13.671875 C-1.12879386 9.01203749 -0.77012016 4.59627268 0 0 Z " fill="#000000" transform="translate(390,211)"/>
<path d="M0 0 C1.32 0.33 2.64 0.66 4 1 C4.25 8.625 4.25 8.625 2 12 C1.34 12 0.68 12 0 12 C0 8.04 0 4.08 0 0 Z " fill="#C8D100" transform="translate(154,235)"/>
<path d="M0 0 C1.55546612 3.11093224 1.01719109 6.26078292 0.9375 9.6875 C0.83764219 12.02768893 0.83764219 12.02768893 2 14 C2.15123831 15.5195764 2.24881693 17.04472502 2.31640625 18.5703125 C2.35830078 19.46621094 2.40019531 20.36210937 2.44335938 21.28515625 C2.48267578 22.22230469 2.52199219 23.15945312 2.5625 24.125 C2.60568359 25.06988281 2.64886719 26.01476562 2.69335938 26.98828125 C2.79959072 29.32537092 2.90163176 31.6625683 3 34 C2.67 34 2.34 34 2 34 C1.86722656 32.71222656 1.73445313 31.42445313 1.59765625 30.09765625 C1.41950101 28.41924638 1.24110308 26.74086227 1.0625 25.0625 C0.93198242 23.78729492 0.93198242 23.78729492 0.79882812 22.48632812 C0.66831055 21.27299805 0.66831055 21.27299805 0.53515625 20.03515625 C0.41732788 18.91185913 0.41732788 18.91185913 0.29711914 17.76586914 C0.1719262 15.97859987 0.1719262 15.97859987 -1 15 C-1.09909302 12.66839945 -1.12970504 10.33370058 -1.125 8 C-1.12757812 6.72125 -1.13015625 5.4425 -1.1328125 4.125 C-1 1 -1 1 0 0 Z " fill="#626900" transform="translate(119,110)"/>
<path d="M0 0 C0.33 1.32 0.66 2.64 1 4 C-1.08984375 6.578125 -1.08984375 6.578125 -3.9375 9.25 C-4.87464844 10.14203125 -5.81179688 11.0340625 -6.77734375 11.953125 C-7.51082031 12.62859375 -8.24429687 13.3040625 -9 14 C-9.66 13.67 -10.32 13.34 -11 13 C-7.37 8.71 -3.74 4.42 0 0 Z " fill="#C2CD00" transform="translate(305,290)"/>
<path d="M0 0 C0.33 0 0.66 0 1 0 C1 10.56 1 21.12 1 32 C0.67 32 0.34 32 0 32 C0 21.44 0 10.88 0 0 Z " fill="#000000" transform="translate(61,57)"/>
<path d="M0 0 C0.33 0 0.66 0 1 0 C1.09765625 6.15234375 1.09765625 6.15234375 1 8 C0.67 8.33 0.34 8.66 0 9 C-0.39148761 10.51165654 -0.73972457 12.03469632 -1.0625 13.5625 C-1.23910156 14.38878906 -1.41570312 15.21507812 -1.59765625 16.06640625 C-1.73042969 16.70449219 -1.86320312 17.34257812 -2 18 C-3.51553092 14.02549507 -2.49888623 10.79518851 -1.5625 6.75 C-1.27503906 5.48671875 -0.98757813 4.2234375 -0.69140625 2.921875 C-0.46324219 1.95765625 -0.23507812 0.9934375 0 0 Z " fill="#6E7500" transform="translate(325,237)"/>
<path d="M0 0 C0.99 0.33 1.98 0.66 3 1 C1.02 1.99 1.02 1.99 -1 3 C-1 3.66 -1 4.32 -1 5 C-3.64 5.33 -6.28 5.66 -9 6 C-6 4 -6 4 -2 4 C-2 3.01 -2 2.02 -2 1 C-1.34 0.67 -0.68 0.34 0 0 Z " fill="#C7D000" transform="translate(143,202)"/>
<path d="M0 0 C0.66 0 1.32 0 2 0 C2 0.66 2 1.32 2 2 C2.99 2.33 3.98 2.66 5 3 C5 3.66 5 4.32 5 5 C5.66 5 6.32 5 7 5 C7.33 6.32 7.66 7.64 8 9 C7.01 8.67 6.02 8.34 5 8 C4.66666667 6.66666667 4.33333333 5.33333333 4 4 C3.01 3.67 2.02 3.34 1 3 C0.67 2.01 0.34 1.02 0 0 Z " fill="#000000" transform="translate(343,110)"/>
<path d="M0 0 C3.63 0 7.26 0 11 0 C9 2 9 2 5.5 2.25 C2 2 2 2 0 0 Z " fill="#000000" transform="translate(50,375)"/>
<path d="M0 0 C3.3 0 6.6 0 10 0 C9.67 0.66 9.34 1.32 9 2 C6.36 2 3.72 2 1 2 C0.67 1.34 0.34 0.68 0 0 Z " fill="#000000" transform="translate(100,367)"/>
<path d="M0 0 C0.33 0 0.66 0 1 0 C1 5.61 1 11.22 1 17 C0.67 17 0.34 17 0 17 C0 11.39 0 5.78 0 0 Z " fill="#000000" transform="translate(17,327)"/>
<path d="M0 0 C0.33 0 0.66 0 1 0 C1 2.97 1 5.94 1 9 C1.66 9 2.32 9 3 9 C2.67 10.32 2.34 11.64 2 13 C-0.20914 9.68629 -0.22481553 8.6553979 -0.125 4.8125 C-0.10695312 3.91144531 -0.08890625 3.01039063 -0.0703125 2.08203125 C-0.04710937 1.39496094 -0.02390625 0.70789063 0 0 Z " fill="#000000" transform="translate(3,251)"/>
<path d="M0 0 C0.66 1.32 1.32 2.64 2 4 C1.67 4.33 1.34 4.66 1 5 C0.76807135 6.51469448 0.58784762 8.03754562 0.4375 9.5625 C0.35371094 10.38878906 0.26992187 11.21507812 0.18359375 12.06640625 C0.12300781 12.70449219 0.06242188 13.34257812 0 14 C-0.33 14 -0.66 14 -1 14 C-1.027193 12.41676312 -1.04648306 10.83338938 -1.0625 9.25 C-1.07410156 8.36828125 -1.08570313 7.4865625 -1.09765625 6.578125 C-1.00826198 4.2181162 -0.66912821 2.25501476 0 0 Z " fill="#000000" transform="translate(4,231)"/>
<path d="M0 0 C-1.45255699 3.82946843 -3.42895561 5.12050295 -7 7 C-3.86206897 0 -3.86206897 0 0 0 Z " fill="#A9B400" transform="translate(34,227)"/>
<path d="M0 0 C0.66 0.33 1.32 0.66 2 1 C-0.31 3.31 -2.62 5.62 -5 8 C-5 5 -5 5 -2.5 2.3125 C-1.675 1.549375 -0.85 0.78625 0 0 Z " fill="#393D00" transform="translate(259,171)"/>
<path d="M0 0 C0.33 0 0.66 0 1 0 C1 5.28 1 10.56 1 16 C0.67 16 0.34 16 0 16 C0 10.72 0 5.44 0 0 Z " fill="#000000" transform="translate(66,114)"/>
<path d="M0 0 C0 0.33 0 0.66 0 1 C-4.67201205 2.20568053 -9.21496292 2.09382426 -14 2 C-14 1.67 -14 1.34 -14 1 C-9.27616037 0.34843591 -4.78025483 -0.11950637 0 0 Z " fill="#000000" transform="translate(263,393)"/>
<path d="M0 0 C6.93 0.495 6.93 0.495 14 1 C14 1.33 14 1.66 14 2 C4.58997722 2.18451025 4.58997722 2.18451025 0 1 C0 0.67 0 0.34 0 0 Z " fill="#000000" transform="translate(174,393)"/>
<path d="M0 0 C0 0.33 0 0.66 0 1 C-1.65 1 -3.3 1 -5 1 C-5 1.66 -5 2.32 -5 3 C-6.65 2.67 -8.3 2.34 -10 2 C-6.5980513 -0.09350689 -3.94727588 -0.17942163 0 0 Z " fill="#000000" transform="translate(170,63)"/>
<path d="M0 0 C0.33 0 0.66 0 1 0 C2.28571429 8.42857143 2.28571429 8.42857143 1 13 C0.67 13 0.34 13 0 13 C0 8.71 0 4.42 0 0 Z " fill="#000000" transform="translate(4,289)"/>
<path d="M0 0 C2.97 0.33 5.94 0.66 9 1 C9 1.66 9 2.32 9 3 C7.68 3 6.36 3 5 3 C5 2.34 5 1.68 5 1 C3.35 1 1.7 1 0 1 C0 0.67 0 0.34 0 0 Z " fill="#000000" transform="translate(267,63)"/>
<path d="M0 0 C0.33 0 0.66 0 1 0 C1 4.29 1 8.58 1 13 C0.67 13 0.34 13 0 13 C0 8.71 0 4.42 0 0 Z " fill="#000000" transform="translate(388,242)"/>
<path d="M0 0 C0.33 0 0.66 0 1 0 C1 4.29 1 8.58 1 13 C0.67 13 0.34 13 0 13 C0 8.71 0 4.42 0 0 Z " fill="#000000" transform="translate(388,199)"/>
<path d="M0 0 C4.29 0 8.58 0 13 0 C13 0.33 13 0.66 13 1 C8.71 1 4.42 1 0 1 C0 0.67 0 0.34 0 0 Z " fill="#000000" transform="translate(94,6)"/>
<path d="M0 0 C0.66 0 1.32 0 2 0 C2 1.98 2 3.96 2 6 C1.34 6 0.68 6 0 6 C0 4.02 0 2.04 0 0 Z " fill="#000000" transform="translate(64,98)"/>
<path d="M0 0 C3.63 0 7.26 0 11 0 C11 0.33 11 0.66 11 1 C7.37 1 3.74 1 0 1 C0 0.67 0 0.34 0 0 Z " fill="#000000" transform="translate(70,372)"/>
<path d="M0 0 C3.63 0 7.26 0 11 0 C11 0.33 11 0.66 11 1 C7.37 1 3.74 1 0 1 C0 0.67 0 0.34 0 0 Z " fill="#000000" transform="translate(90,369)"/>
<path d="M0 0 C3.63 0 7.26 0 11 0 C11 0.33 11 0.66 11 1 C7.37 1 3.74 1 0 1 C0 0.67 0 0.34 0 0 Z " fill="#000000" transform="translate(110,366)"/>
<path d="M0 0 C3.3 0 6.6 0 10 0 C10 0.33 10 0.66 10 1 C6.7 1 3.4 1 0 1 C0 0.67 0 0.34 0 0 Z " fill="#000000" transform="translate(61,374)"/>
<path d="M0 0 C0.33 0 0.66 0 1 0 C1 3.3 1 6.6 1 10 C0.67 10 0.34 10 0 10 C0 6.7 0 3.4 0 0 Z " fill="#000000" transform="translate(1,243)"/>
<path d="M0 0 C0.33 0 0.66 0 1 0 C1 3.3 1 6.6 1 10 C0.67 10 0.34 10 0 10 C0 6.7 0 3.4 0 0 Z " fill="#000000" transform="translate(63,88)"/>
<path d="M0 0 C2.97 0 5.94 0 9 0 C9 0.33 9 0.66 9 1 C6.03 1 3.06 1 0 1 C0 0.67 0 0.34 0 0 Z " fill="#000000" transform="translate(81,371)"/>
<path d="M0 0 C0.99 1.32 1.98 2.64 3 4 C2.34 4.66 1.68 5.32 1 6 C-0.0625 4.125 -0.0625 4.125 -1 2 C-0.67 1.34 -0.34 0.68 0 0 Z " fill="#000000" transform="translate(363,134)"/>
<path d="M0 0 C0.66 0 1.32 0 2 0 C2 0.66 2 1.32 2 2 C2.99 2.33 3.98 2.66 5 3 C4.67 3.66 4.34 4.32 4 5 C2.64567325 3.68799596 1.31266518 2.35368596 0 1 C0 0.67 0 0.34 0 0 Z " fill="#000000" transform="translate(332,99)"/>
<path d="M0 0 C2.625 0.375 2.625 0.375 5 1 C5 1.33 5 1.66 5 2 C2.69 2 0.38 2 -2 2 C-1.34 1.34 -0.68 0.68 0 0 Z " fill="#000000" transform="translate(257,59)"/>
<path d="M0 0 C1.32 0.66 2.64 1.32 4 2 C1.69 2 -0.62 2 -3 2 C-2.01 1.34 -1.02 0.68 0 0 Z " fill="#000000" transform="translate(178,59)"/>
<path d="M0 0 C1.65 0 3.3 0 5 0 C4.67 0.66 4.34 1.32 4 2 C2.68 1.67 1.36 1.34 0 1 C0 0.67 0 0.34 0 0 Z " fill="#000000" transform="translate(155,386)"/>
<path d="M0 0 C0.99 1.32 1.98 2.64 3 4 C2.01 4.495 2.01 4.495 1 5 C0.34 3.68 -0.32 2.36 -1 1 C-0.67 0.67 -0.34 0.34 0 0 Z " fill="#000000" transform="translate(27,359)"/>
<path d="M0 0 C0.99 1.32 1.98 2.64 3 4 C2.34 4.66 1.68 5.32 1 6 C0.67 4.02 0.34 2.04 0 0 Z " fill="#000000" transform="translate(11,315)"/>
<path d="M0 0 C2.475 0.495 2.475 0.495 5 1 C4.67 1.66 4.34 2.32 4 3 C3.34 3 2.68 3 2 3 C2 2.34 2 1.68 2 1 C1.34 0.67 0.68 0.34 0 0 Z " fill="#000000" transform="translate(309,82)"/>
<path d="M0 0 C2.475 0.99 2.475 0.99 5 2 C4.01 2.33 3.02 2.66 2 3 C1.01 2.34 0.02 1.68 -1 1 C-0.67 0.67 -0.34 0.34 0 0 Z " fill="#000000" transform="translate(304,78)"/>
<path d="M0 0 C1.98 0.495 1.98 0.495 4 1 C4 1.33 4 1.66 4 2 C2.35 2 0.7 2 -1 2 C-0.67 1.34 -0.34 0.68 0 0 Z " fill="#000000" transform="translate(91,7)"/>
<path d="M0 0 C1.32 0.99 2.64 1.98 4 3 C2.35 2.67 0.7 2.34 -1 2 C-0.67 1.34 -0.34 0.68 0 0 Z " fill="#000000" transform="translate(126,370)"/>
<path d="M0 0 C0.33 0 0.66 0 1 0 C1 2.31 1 4.62 1 7 C0.67 7 0.34 7 0 7 C0 4.69 0 2.38 0 0 Z " fill="#000000" transform="translate(385,263)"/>
<path d="M0 0 C0.66 0.33 1.32 0.66 2 1 C1.01 1.99 0.02 2.98 -1 4 C-0.67 2.68 -0.34 1.36 0 0 Z " fill="#000000" transform="translate(18,172)"/>
<path d="M0 0 C1.98 0 3.96 0 6 0 C6 0.33 6 0.66 6 1 C4.02 1 2.04 1 0 1 C0 0.67 0 0.34 0 0 Z " fill="#000000" transform="translate(263,391)"/>
<path d="M0 0 C1.98 0 3.96 0 6 0 C6 0.33 6 0.66 6 1 C4.02 1 2.04 1 0 1 C0 0.67 0 0.34 0 0 Z " fill="#000000" transform="translate(168,391)"/>
<path d="M0 0 C1.98 0.99 1.98 0.99 4 2 C2.68 2 1.36 2 0 2 C0 1.34 0 0.68 0 0 Z " fill="#000000" transform="translate(269,389)"/>
<path d="M0 0 C0 0.66 0 1.32 0 2 C-1.32 1.67 -2.64 1.34 -4 1 C-2 0 -2 0 0 0 Z " fill="#000000" transform="translate(168,389)"/>
<path d="M0 0 C0.99 0.33 1.98 0.66 3 1 C1.68 1.33 0.36 1.66 -1 2 C-0.67 1.34 -0.34 0.68 0 0 Z " fill="#000000" transform="translate(139,378)"/>
<path d="M0 0 C1.98 0 3.96 0 6 0 C6 0.33 6 0.66 6 1 C4.02 1 2.04 1 0 1 C0 0.67 0 0.34 0 0 Z " fill="#000000" transform="translate(44,374)"/>
<path d="M0 0 C0.66 0.33 1.32 0.66 2 1 C1.01 1.66 0.02 2.32 -1 3 C-1.33 2.34 -1.66 1.68 -2 1 C-1.34 0.67 -0.68 0.34 0 0 Z " fill="#000000" transform="translate(330,355)"/>
<path d="M0 0 C1.485 0.99 1.485 0.99 3 2 C2.67 2.66 2.34 3.32 2 4 C1.34 2.68 0.68 1.36 0 0 Z " fill="#000000" transform="translate(17,324)"/>
<path d="M0 0 C0.99 1.32 1.98 2.64 3 4 C2.01 3.67 1.02 3.34 0 3 C0 2.01 0 1.02 0 0 Z " fill="#000000" transform="translate(14,320)"/>
<path d="M0 0 C0.99 0.33 1.98 0.66 3 1 C3 1.66 3 2.32 3 3 C2.34 3 1.68 3 1 3 C0.67 2.01 0.34 1.02 0 0 Z " fill="#000000" transform="translate(340,107)"/>
<path d="M0 0 C1.98 0.99 1.98 0.99 4 2 C3.01 2.495 3.01 2.495 2 3 C1.34 2.67 0.68 2.34 0 2 C0 1.34 0 0.68 0 0 Z " fill="#000000" transform="translate(320,89)"/>
<path d="M0 0 C0.99 0 1.98 0 3 0 C3 0.66 3 1.32 3 2 C2.01 2 1.02 2 0 2 C0 1.34 0 0.68 0 0 Z " fill="#000000" transform="translate(298,75)"/>
<path d="M0 0 C1.98 0 3.96 0 6 0 C6 0.33 6 0.66 6 1 C4.02 1 2.04 1 0 1 C0 0.67 0 0.34 0 0 Z " fill="#000000" transform="translate(262,61)"/>
<path d="M0 0 C1.98 0 3.96 0 6 0 C6 0.33 6 0.66 6 1 C4.02 1 2.04 1 0 1 C0 0.67 0 0.34 0 0 Z " fill="#000000" transform="translate(169,61)"/>
<path d="M0 0 C1.65 0 3.3 0 5 0 C5 0.33 5 0.66 5 1 C3.35 1 1.7 1 0 1 C0 0.67 0 0.34 0 0 Z " fill="#000000" transform="translate(273,388)"/>
<path d="M0 0 C1.65 0 3.3 0 5 0 C5 0.33 5 0.66 5 1 C3.35 1 1.7 1 0 1 C0 0.67 0 0.34 0 0 Z " fill="#000000" transform="translate(159,388)"/>
<path d="M0 0 C0.99 0 1.98 0 3 0 C3 0.66 3 1.32 3 2 C2.01 1.67 1.02 1.34 0 1 C0 0.67 0 0.34 0 0 Z " fill="#000000" transform="translate(301,375)"/>
<path d="M0 0 C0.33 0.99 0.66 1.98 1 3 C0.34 3 -0.32 3 -1 3 C-0.67 2.01 -0.34 1.02 0 0 Z " fill="#000000" transform="translate(360,129)"/>
<path d="M0 0 C1.65 0 3.3 0 5 0 C5 0.33 5 0.66 5 1 C3.35 1 1.7 1 0 1 C0 0.67 0 0.34 0 0 Z " fill="#000000" transform="translate(276,66)"/>
<path d="M0 0 C1.65 0 3.3 0 5 0 C5 0.33 5 0.66 5 1 C3.35 1 1.7 1 0 1 C0 0.67 0 0.34 0 0 Z " fill="#000000" transform="translate(156,66)"/>
<path d="M0 0 C0.33 0 0.66 0 1 0 C1 1.65 1 3.3 1 5 C0.67 5 0.34 5 0 5 C0 3.35 0 1.7 0 0 Z " fill="#000000" transform="translate(137,38)"/>
<path d="M0 0 C4 1 4 1 4 1 Z " fill="#000000" transform="translate(151,385)"/>
<path d="M0 0 C4 1 4 1 4 1 Z " fill="#000000" transform="translate(285,383)"/>
<path d="M0 0 C4 1 4 1 4 1 Z " fill="#000000" transform="translate(148,383)"/>
<path d="M0 0 C4 1 4 1 4 1 Z " fill="#000000" transform="translate(144,382)"/>
<path d="M0 0 C4 1 4 1 4 1 Z " fill="#000000" transform="translate(292,380)"/>
<path d="M0 0 C4 1 4 1 4 1 Z " fill="#000000" transform="translate(141,380)"/>
<path d="M0 0 C4 1 4 1 4 1 Z " fill="#000000" transform="translate(298,377)"/>
<path d="M0 0 C4 1 4 1 4 1 Z " fill="#000000" transform="translate(135,377)"/>
<path d="M0 0 C0.99 0.33 1.98 0.66 3 1 C2.01 1 1.02 1 0 1 C0 0.67 0 0.34 0 0 Z " fill="#000000" transform="translate(133,375)"/>
<path d="M0 0 C4 1 4 1 4 1 Z " fill="#000000" transform="translate(41,372)"/>
<path d="M0 0 C1.485 0.99 1.485 0.99 3 2 C2.01 2 1.02 2 0 2 C0 1.34 0 0.68 0 0 Z " fill="#000000" transform="translate(309,370)"/>
<path d="M0 0 C0.66 0 1.32 0 2 0 C2 0.66 2 1.32 2 2 C1.34 2 0.68 2 0 2 C0 1.34 0 0.68 0 0 Z " fill="#000000" transform="translate(314,367)"/>
<path d="M0 0 C0.66 0 1.32 0 2 0 C2 0.66 2 1.32 2 2 C1.34 2 0.68 2 0 2 C0 1.34 0 0.68 0 0 Z " fill="#000000" transform="translate(121,367)"/>
<path d="M0 0 C0.66 0 1.32 0 2 0 C2 0.66 2 1.32 2 2 C1.34 2 0.68 2 0 2 C0 1.34 0 0.68 0 0 Z " fill="#000000" transform="translate(34,367)"/>
<path d="M0 0 C0.99 0.33 1.98 0.66 3 1 C2.01 1 1.02 1 0 1 C0 0.67 0 0.34 0 0 Z " fill="#000000" transform="translate(318,364)"/>
<path d="M0 0 C1 4 1 4 1 4 Z " fill="#000000" transform="translate(20,349)"/>
<path d="M0 0 C0.66 0 1.32 0 2 0 C2 0.66 2 1.32 2 2 C1.34 2 0.68 2 0 2 C0 1.34 0 0.68 0 0 Z " fill="#000000" transform="translate(337,348)"/>
<path d="M0 0 C0.66 0 1.32 0 2 0 C1.67 0.99 1.34 1.98 1 3 C0.67 2.01 0.34 1.02 0 0 Z " fill="#000000" transform="translate(362,317)"/>
<path d="M0 0 C0 3 0 3 0 3 Z " fill="#000000" transform="translate(369,306)"/>
<path d="M0 0 C0.66 0 1.32 0 2 0 C1.67 0.99 1.34 1.98 1 3 C0.67 2.01 0.34 1.02 0 0 Z " fill="#000000" transform="translate(370,303)"/>
<path d="M0 0 C0 3 0 3 0 3 Z " fill="#000000" transform="translate(372,300)"/>
<path d="M0 0 C1 4 1 4 1 4 Z " fill="#000000" transform="translate(377,289)"/>
<path d="M0 0 C0.99 0.495 0.99 0.495 2 1 C1.67 1.66 1.34 2.32 1 3 C0.67 2.01 0.34 1.02 0 0 Z " fill="#000000" transform="translate(15,175)"/>
<path d="M0 0 C1 4 1 4 1 4 Z " fill="#000000" transform="translate(377,161)"/>
<path d="M0 0 C4 1 4 1 4 1 Z " fill="#000000" transform="translate(32,161)"/>
<path d="M0 0 C0.66 0 1.32 0 2 0 C2 0.66 2 1.32 2 2 C1.34 2 0.68 2 0 2 C0 1.34 0 0.68 0 0 Z " fill="#000000" transform="translate(326,94)"/>
<path d="M0 0 C4 1 4 1 4 1 Z " fill="#000000" transform="translate(288,71)"/>
<path d="M0 0 C4 1 4 1 4 1 Z " fill="#000000" transform="translate(145,71)"/>
<path d="M0 0 C4 1 4 1 4 1 Z " fill="#000000" transform="translate(285,69)"/>
<path d="M0 0 C0 3 0 3 0 3 Z " fill="#000000" transform="translate(132,29)"/>
<path d="M0 0 C3 1 3 1 3 1 Z " fill="#000000" transform="translate(289,382)"/>
<path d="M0 0 C3 1 3 1 3 1 Z " fill="#000000" transform="translate(304,374)"/>
<path d="M0 0 C3 1 3 1 3 1 Z " fill="#000000" transform="translate(130,374)"/>
<path d="M0 0 C3 1 3 1 3 1 Z " fill="#000000" transform="translate(38,371)"/>
<path d="M0 0 C3 1 3 1 3 1 Z " fill="#000000" transform="translate(316,366)"/>
<path d="M0 0 C3 1 3 1 3 1 Z " fill="#000000" transform="translate(322,361)"/>
<path d="M0 0 C3 1 3 1 3 1 Z " fill="#000000" transform="translate(326,358)"/>
<path d="M0 0 C0.66 0.66 1.32 1.32 2 2 C1.34 2 0.68 2 0 2 C0 1.34 0 0.68 0 0 Z " fill="#000000" transform="translate(334,351)"/>
<path d="M0 0 C0.66 0 1.32 0 2 0 C1.67 0.66 1.34 1.32 1 2 C0.67 1.34 0.34 0.68 0 0 Z " fill="#000000" transform="translate(340,345)"/>
<path d="M0 0 C0.66 0 1.32 0 2 0 C1.67 0.66 1.34 1.32 1 2 C0.67 1.34 0.34 0.68 0 0 Z " fill="#000000" transform="translate(343,342)"/>
<path d="M0 0 C0.99 0.495 0.99 0.495 2 1 C1.01 1.495 1.01 1.495 0 2 C0 1.34 0 0.68 0 0 Z " fill="#000000" transform="translate(20,170)"/>
<path d="M0 0 C0.66 0.66 1.32 1.32 2 2 C1.34 2 0.68 2 0 2 C0 1.34 0 0.68 0 0 Z " fill="#000000" transform="translate(22,168)"/>
<path d="M0 0 C3 1 3 1 3 1 Z " fill="#000000" transform="translate(27,164)"/>
<path d="M0 0 C0.66 0 1.32 0 2 0 C1.67 0.66 1.34 1.32 1 2 C0.67 1.34 0.34 0.68 0 0 Z " fill="#000000" transform="translate(30,162)"/>
<path d="M0 0 C0.33 0.66 0.66 1.32 1 2 C0.34 1.67 -0.32 1.34 -1 1 C-0.67 0.67 -0.34 0.34 0 0 Z " fill="#000000" transform="translate(339,105)"/>
<path d="M0 0 C3 1 3 1 3 1 Z " fill="#000000" transform="translate(313,85)"/>
<path d="M0 0 C3 1 3 1 3 1 Z " fill="#000000" transform="translate(301,77)"/>
<path d="M0 0 C3 1 3 1 3 1 Z " fill="#000000" transform="translate(295,74)"/>
<path d="M0 0 C3 1 3 1 3 1 Z " fill="#000000" transform="translate(292,72)"/>
<path d="M0 0 C3 1 3 1 3 1 Z " fill="#000000" transform="translate(149,69)"/>
<path d="" fill="#000000" transform="translate(0,0)"/>
<path d="M0 0 C0.66 0.66 1.32 1.32 2 2 C1.34 2 0.68 2 0 2 C0 1.34 0 0.68 0 0 Z " fill="#000000" transform="translate(77,18)"/>
<path d="M0 0 C0.66 0.66 1.32 1.32 2 2 C1.34 2 0.68 2 0 2 C0 1.34 0 0.68 0 0 Z " fill="#000000" transform="translate(80,15)"/>
<path d="M0 0 C0.33 0.66 0.66 1.32 1 2 C0.34 1.67 -0.32 1.34 -1 1 C-0.67 0.67 -0.34 0.34 0 0 Z " fill="#000000" transform="translate(121,15)"/>
<path d="M0 0 C3 1 3 1 3 1 Z " fill="#000000" transform="translate(118,14)"/>
<path d="M0 0 C3 1 3 1 3 1 Z " fill="#000000" transform="translate(87,9)"/>
<path d="M0 0 C2 1 2 1 2 1 Z " fill="#000000" transform="translate(307,372)"/>
<path d="M0 0 C2 1 2 1 2 1 Z " fill="#000000" transform="translate(312,369)"/>
<path d="M0 0 C2 1 2 1 2 1 Z " fill="#000000" transform="translate(123,369)"/>
<path d="M0 0 C2 1 2 1 2 1 Z " fill="#000000" transform="translate(32,366)"/>
<path d="M0 0 C2 1 2 1 2 1 Z " fill="#000000" transform="translate(30,364)"/>
<path d="M0 0 C2 1 2 1 2 1 Z " fill="#000000" transform="translate(321,363)"/>
<path d="M0 0 C2 1 2 1 2 1 Z " fill="#000000" transform="translate(332,353)"/>
<path d="M0 0 C2 1 2 1 2 1 Z " fill="#000000" transform="translate(335,350)"/>
<path d="" fill="#000000" transform="translate(0,0)"/>
<path d="M0 0 C2 1 2 1 2 1 Z " fill="#000000" transform="translate(23,167)"/>
<path d="M0 0 C2 1 2 1 2 1 Z " fill="#000000" transform="translate(337,104)"/>
<path d="M0 0 C2 1 2 1 2 1 Z " fill="#000000" transform="translate(328,96)"/>
<path d="M0 0 C2 1 2 1 2 1 Z " fill="#000000" transform="translate(324,93)"/>
<path d="M0 0 C2 1 2 1 2 1 Z " fill="#000000" transform="translate(318,88)"/>
<path d="M0 0 C2 1 2 1 2 1 Z " fill="#000000" transform="translate(78,17)"/>
<path d="M0 0 C2 1 2 1 2 1 Z " fill="#000000" transform="translate(81,14)"/>
<path d="M0 0 C2 1 2 1 2 1 Z " fill="#000000" transform="translate(83,12)"/>
<path d="" fill="#000000" transform="translate(0,0)"/>
</svg>
